<svg width="160" height="161" viewBox="0 0 160 161" fill="none" xmlns="http://www.w3.org/2000/svg">
<path d="M51.5887 143.749C52.1339 144.02 52.548 144.349 52.8312 144.735C53.1144 145.121 53.3125 145.58 53.4256 146.111L52.2757 146.498C52.2221 146.127 52.1031 145.798 51.9186 145.51C51.7308 145.228 51.4334 144.986 51.0261 144.784C50.6452 144.595 50.3039 144.524 50.0024 144.571C49.6942 144.614 49.4717 144.774 49.3348 145.05C49.2207 145.28 49.1869 145.496 49.2335 145.7C49.28 145.903 49.3789 146.099 49.5304 146.289C49.6719 146.482 49.843 146.674 50.0436 146.863C50.2344 147.056 50.4252 147.257 50.616 147.467C50.797 147.679 50.9502 147.907 51.0755 148.149C51.1943 148.388 51.2557 148.652 51.2599 148.941C51.264 149.23 51.1781 149.551 51.002 149.906C50.7999 150.313 50.5303 150.609 50.1931 150.794C49.846 150.982 49.4643 151.066 49.0477 151.048C48.6312 151.029 48.2128 150.916 47.7924 150.707C47.3392 150.482 46.9793 150.193 46.7126 149.839C46.4394 149.483 46.2595 149.111 46.1731 148.724L47.323 148.337C47.4092 148.658 47.5346 148.925 47.6992 149.138C47.854 149.354 48.0693 149.53 48.3451 149.667C48.6867 149.837 48.9902 149.902 49.2557 149.862C49.5146 149.818 49.706 149.672 49.8299 149.422C49.9342 149.212 49.9599 149.012 49.9068 148.822C49.8505 148.638 49.75 148.453 49.6051 148.267C49.4504 148.083 49.2777 147.895 49.087 147.702C48.8896 147.506 48.7004 147.302 48.5195 147.089C48.3319 146.873 48.182 146.639 48.0697 146.387C47.9477 146.138 47.8878 145.862 47.8902 145.561C47.8926 145.259 47.985 144.924 48.1676 144.556C48.474 143.939 48.9369 143.559 49.5562 143.416C50.169 143.27 50.8465 143.381 51.5887 143.749Z" fill="#181B2E"/>
<path d="M34.2106 136.982L33.5081 137.755L32.0671 136.446C31.7794 136.185 31.4903 136.056 31.1998 136.06C30.8989 136.064 30.6277 136.199 30.3862 136.465C30.1693 136.704 30.0656 136.976 30.0751 137.282C30.0846 137.588 30.2332 137.871 30.5209 138.133L31.9701 139.449L31.2307 140.264L29.7408 138.91C29.3825 138.585 29.1343 138.225 28.996 137.832C28.8528 137.445 28.8213 137.059 28.9015 136.676C28.9713 136.294 29.1492 135.945 29.4351 135.63C29.7358 135.299 30.0731 135.08 30.4469 134.974C30.8152 134.863 31.1967 134.863 31.5914 134.974C31.986 135.085 32.3624 135.303 32.7207 135.628L34.2106 136.982ZM37.0499 135.147L31.8739 140.848L30.9376 139.998L36.1136 134.297L37.0499 135.147ZM33.9234 132.307L33.6703 136.595L32.5108 136.121L32.7429 131.234L33.9234 132.307Z" fill="#181B2E"/>
<path d="M22.0409 118.253C22.3215 118.726 22.4951 119.22 22.5618 119.735C22.6284 120.249 22.5989 120.753 22.4733 121.245C22.3413 121.742 22.1228 122.2 21.8177 122.62C21.5025 123.037 21.1084 123.386 20.6355 123.667C20.1626 123.948 19.6706 124.124 19.1597 124.198C18.6451 124.264 18.1435 124.238 17.6549 124.119C17.1562 123.997 16.702 123.785 16.2923 123.482C15.8725 123.177 15.5223 122.788 15.2417 122.315C14.9611 121.842 14.7893 121.351 14.7264 120.842C14.6535 120.331 14.683 119.828 14.815 119.332C14.9406 118.839 15.161 118.384 15.4762 117.967C15.7813 117.547 16.1703 117.197 16.6433 116.916C17.1162 116.635 17.6132 116.46 18.1341 116.389C18.645 116.316 19.1466 116.342 19.639 116.468C20.1276 116.587 20.5817 116.799 21.0015 117.105C21.4176 117.403 21.764 117.786 22.0409 118.253ZM21.0116 118.889C20.746 118.442 20.4131 118.111 20.013 117.896C19.6092 117.675 19.1746 117.575 18.7092 117.596C18.2338 117.613 17.7627 117.761 17.2961 118.038C16.9493 118.244 16.6676 118.488 16.4512 118.77C16.2248 119.049 16.0673 119.351 15.979 119.677C15.8843 120.006 15.8625 120.343 15.9137 120.688C15.961 121.026 16.0839 121.363 16.2822 121.697C16.5441 122.139 16.877 122.47 17.2808 122.69C17.6746 122.909 18.1061 123.011 18.5752 122.997C19.0406 122.976 19.5066 122.827 19.9732 122.55C20.3201 122.345 20.6099 122.1 20.8426 121.817C21.0653 121.531 21.2228 121.229 21.3149 120.91C21.4032 120.584 21.425 120.247 21.3802 119.899C21.329 119.554 21.2062 119.217 21.0116 118.889Z" fill="#181B2E"/>
<path d="M14.1204 101.79L6.65683 103.683L6.34598 102.457L13.8096 100.563L14.1204 101.79ZM13.9069 100.947L12.7874 101.231L11.798 97.3287L12.9176 97.0447L13.9069 100.947Z" fill="#181B2E"/>
<path d="M11.0056 84.4907L3.30574 84.437L3.31455 83.172L11.0144 83.2257L11.0056 84.4907ZM11.0116 83.6217L9.85664 83.6136L9.88467 79.5877L11.0396 79.5958L11.0116 83.6217Z" fill="#181B2E"/>
<path d="M16.0396 54.8122L15.0016 54.3057L15.8886 52.4864C16.12 52.0119 16.2203 51.5467 16.1895 51.0911C16.162 50.6289 16.0152 50.2105 15.7491 49.8359C15.4796 49.4515 15.1044 49.1419 14.6232 48.9072C14.1487 48.6757 13.6804 48.5737 13.2182 48.6011C12.7561 48.6286 12.3345 48.7738 11.9534 49.0367C11.5756 49.2929 11.2726 49.6551 11.0444 50.1231L10.1574 51.9423L9.11932 51.4359L10.0208 49.587C10.265 49.086 10.5806 48.6647 10.9674 48.3231C11.3477 47.9782 11.7731 47.7248 12.2438 47.5627C12.711 47.3909 13.1989 47.3188 13.7075 47.3466C14.2095 47.3712 14.7076 47.5041 15.202 47.7453C15.6897 47.9832 16.1011 48.2941 16.4361 48.6779C16.7711 49.0616 17.0197 49.4889 17.1818 49.9596C17.3373 50.4271 17.3996 50.9185 17.3686 51.4338C17.3311 51.9459 17.1918 52.4491 16.9508 52.9434L16.0396 54.8122ZM15.6588 55.5933L8.73848 52.217L9.29286 51.08L16.2132 54.4562L15.6588 55.5933Z" fill="#181B2E"/>
<path d="M28.4584 35.286C28.0786 35.6838 27.65 35.9842 27.1723 36.1872C26.6947 36.3902 26.202 36.4976 25.694 36.5093C25.1807 36.516 24.6809 36.429 24.1944 36.2483C23.7077 36.0572 23.2655 35.7717 22.8677 35.3919C22.47 35.012 22.1671 34.5858 21.9591 34.1134C21.7562 33.6356 21.6464 33.1453 21.6295 32.6425C21.6125 32.1293 21.6944 31.6346 21.8753 31.1583C22.0559 30.6717 22.3361 30.2295 22.7159 29.8316C23.0956 29.4338 23.5218 29.136 23.9943 28.9383C24.4666 28.7303 24.9594 28.6229 25.4726 28.6162C25.9806 28.6045 26.4779 28.6941 26.9647 28.8852C27.4511 29.0659 27.8932 29.3462 28.291 29.7261C28.6887 30.106 28.9917 30.5373 29.1999 31.0201C29.4079 31.4926 29.5178 31.9829 29.5295 32.491C29.5463 32.9938 29.4644 33.4885 29.2838 33.9752C29.1082 34.4565 28.8331 34.8934 28.4584 35.286ZM27.5682 34.4661C27.9277 34.0895 28.1568 33.6796 28.2554 33.2363C28.3592 32.7878 28.3385 32.3422 28.1934 31.8994C28.0481 31.4462 27.7792 31.0322 27.3868 30.6574C27.0951 30.3788 26.7844 30.1733 26.4546 30.0409C26.1246 29.8981 25.7911 29.828 25.454 29.8306C25.1117 29.8281 24.7814 29.898 24.4632 30.0402C24.15 30.1772 23.8592 30.3862 23.5909 30.6673C23.2364 31.0387 23.0074 31.4486 22.9036 31.8971C22.7997 32.3353 22.8177 32.7784 22.9577 33.2265C23.1028 33.6693 23.3715 34.0781 23.7639 34.4529C24.0556 34.7315 24.3691 34.9447 24.7044 35.0926C25.0395 35.2301 25.373 35.3002 25.705 35.3029C26.042 35.3003 26.3723 35.2304 26.6959 35.0933C27.0141 34.951 27.3049 34.742 27.5682 34.4661Z" fill="#181B2E"/>
<path d="M44.001 21.945L38.2701 16.2146L39.3793 15.6536L43.7519 20.0864L43.4574 20.2353L42.442 14.1048L43.2272 13.7077L47.5605 18.1603L47.266 18.3092L46.2899 12.1588L47.3991 11.5979L48.6146 19.6118L47.8293 20.009L43.4911 15.5711L43.7856 15.4222L44.7863 21.5479L44.001 21.945Z" fill="#181B2E"/>
<path d="M65.135 13.4809L64.0738 5.8544L64.9454 5.73305L65.5268 7.1181L66.3879 13.3065L65.135 13.4809ZM70.419 12.7452L65.0248 7.42122L64.9454 5.73305L70.3396 11.057L70.419 12.7452ZM70.419 12.7452L69.8512 11.4582L68.9765 5.17179L70.2294 4.99734L71.2906 12.6239L70.419 12.7452Z" fill="#181B2E"/>
<path d="M98.956 14.7133L101.302 7.61078L102.503 8.0078L100.157 15.1103L98.956 14.7133ZM98.6277 7.71146L98.99 6.61475L104.954 8.58604L104.591 9.68275L98.6277 7.71146Z" fill="#181B2E"/>
<path d="M117.692 23.4437C117.244 23.1254 116.884 22.7446 116.614 22.3012C116.345 21.8579 116.167 21.3857 116.082 20.8846C116.001 20.3775 116.015 19.8702 116.123 19.3626C116.241 18.8532 116.46 18.3742 116.778 17.9255C117.096 17.4769 117.474 17.1155 117.911 16.8412C118.354 16.5713 118.823 16.3916 119.318 16.3022C119.823 16.2111 120.324 16.2205 120.822 16.3307C121.329 16.439 121.807 16.6524 122.256 16.9707C122.704 17.289 123.061 17.6677 123.325 18.1068C123.599 18.5442 123.776 19.0164 123.857 19.5234C123.942 20.0245 123.926 20.5297 123.807 21.0391C123.699 21.5467 123.486 22.0249 123.168 22.4735C122.849 22.9221 122.467 23.2844 122.019 23.5604C121.582 23.8346 121.113 24.0143 120.612 24.0994C120.117 24.1888 119.616 24.1793 119.108 24.071C118.607 23.9668 118.135 23.7578 117.692 23.4437ZM118.374 22.444C118.799 22.7453 119.238 22.9127 119.69 22.9462C120.149 22.984 120.587 22.8991 121.004 22.6914C121.431 22.482 121.801 22.156 122.115 21.7133C122.349 21.3843 122.507 21.047 122.59 20.7015C122.684 20.3542 122.705 20.0139 122.653 19.6807C122.606 19.3415 122.489 19.0247 122.303 18.7303C122.122 18.4401 121.873 18.1826 121.556 17.9577C121.137 17.6606 120.699 17.4932 120.24 17.4554C119.791 17.4159 119.356 17.4979 118.933 17.7013C118.516 17.9089 118.15 18.2341 117.836 18.6767C117.603 19.0057 117.438 19.3469 117.34 19.7002C117.252 20.0517 117.231 20.392 117.277 20.7209C117.328 21.0541 117.445 21.3709 117.628 21.6713C117.814 21.9657 118.063 22.2233 118.374 22.444Z" fill="#181B2E"/>
<path d="M139.575 46.66C139.291 46.1217 139.146 45.6131 139.143 45.1342C139.139 44.6553 139.246 44.1674 139.465 43.6705L140.624 44.0286C140.451 44.3606 140.355 44.6973 140.336 45.0389C140.324 45.3771 140.424 45.7473 140.636 46.1494C140.834 46.5255 141.07 46.7828 141.342 46.9211C141.617 47.0659 141.891 47.0664 142.163 46.9226C142.39 46.8028 142.544 46.6468 142.625 46.4547C142.706 46.2627 142.741 46.0454 142.729 45.8029C142.727 45.5634 142.7 45.3081 142.648 45.037C142.606 44.7689 142.569 44.4941 142.537 44.2127C142.514 43.9343 142.523 43.6602 142.563 43.3903C142.606 43.1269 142.711 42.8769 142.876 42.6403C143.042 42.4037 143.299 42.1929 143.649 42.008C144.052 41.7957 144.443 41.7133 144.825 41.7606C145.216 41.811 145.576 41.9654 145.903 42.2239C146.23 42.4824 146.503 42.8192 146.722 43.2343C146.958 43.6818 147.081 44.1269 147.091 44.5696C147.104 45.0188 147.032 45.4255 146.876 45.7898L145.717 45.4316C145.835 45.1207 145.889 44.8307 145.88 44.5619C145.881 44.2962 145.809 44.0271 145.666 43.7547C145.488 43.4174 145.279 43.1875 145.04 43.0648C144.805 42.9486 144.564 42.9556 144.318 43.0857C144.11 43.1953 143.972 43.3427 143.904 43.5279C143.843 43.7097 143.816 43.9187 143.825 44.1547C143.843 44.3938 143.873 44.6473 143.915 44.9154C143.96 45.19 143.994 45.4665 144.017 45.7448C144.043 46.0297 144.028 46.3073 143.971 46.5775C143.925 46.8508 143.812 47.1092 143.634 47.3527C143.456 47.5961 143.185 47.8137 142.822 48.0055C142.212 48.3273 141.614 48.3652 141.029 48.119C140.446 47.8792 139.961 47.3929 139.575 46.66Z" fill="#181B2E"/>
<path d="M146.344 62.1409L153.877 60.5421L154.139 61.7795L146.607 63.3783L146.344 62.1409ZM146.525 62.991L147.655 62.7511L148.549 66.9693L147.419 67.2091L146.525 62.991ZM149.828 62.2898L150.915 62.0591L151.732 65.9114L150.645 66.1421L149.828 62.2898ZM152.927 61.632L154.057 61.3922L154.94 65.5565L153.81 65.7963L152.927 61.632Z" fill="#181B2E"/>
<path d="M148.97 81.006L156.652 81.5255L156.567 82.7876L148.884 82.2681L148.97 81.006ZM148.911 81.873L150.063 81.9509L149.773 86.2531L148.62 86.1752L148.911 81.873ZM152.28 82.1008L153.389 82.1758L153.123 86.1048L152.015 86.0299L152.28 82.1008ZM155.441 82.3146L156.594 82.3925L156.306 86.6398L155.154 86.5619L155.441 82.3146Z" fill="#181B2E"/>
<path d="M141.248 112.752L149.141 114.59L148.495 115.653L142.441 114.198L142.612 113.916L146.713 118.585L146.256 119.337L140.225 117.845L140.396 117.563L144.473 122.27L143.828 123.333L138.563 117.17L139.02 116.418L145.047 117.895L144.876 118.177L140.791 113.504L141.248 112.752Z" fill="#181B2E"/>
<path d="M125.868 132.264C126.29 131.912 126.75 131.662 127.248 131.514C127.745 131.367 128.247 131.316 128.753 131.362C129.264 131.414 129.75 131.557 130.213 131.792C130.675 132.037 131.082 132.37 131.434 132.793C131.786 133.216 132.039 133.673 132.192 134.166C132.339 134.664 132.393 135.164 132.352 135.665C132.311 136.177 132.174 136.659 131.94 137.112C131.705 137.575 131.377 137.982 130.954 138.335C130.532 138.687 130.074 138.934 129.583 139.077C129.09 139.23 128.588 139.281 128.077 139.229C127.571 139.183 127.087 139.038 126.625 138.793C126.162 138.558 125.755 138.229 125.403 137.807C125.051 137.384 124.799 136.921 124.647 136.418C124.494 135.925 124.44 135.425 124.486 134.919C124.527 134.418 124.664 133.935 124.899 133.472C125.128 133.014 125.451 132.611 125.868 132.264ZM126.659 133.179C126.259 133.513 125.985 133.894 125.837 134.323C125.683 134.757 125.653 135.202 125.747 135.659C125.84 136.125 126.06 136.567 126.407 136.984C126.665 137.294 126.951 137.533 127.263 137.702C127.575 137.882 127.898 137.989 128.233 138.025C128.573 138.066 128.909 138.034 129.242 137.929C129.568 137.829 129.881 137.654 130.18 137.405C130.574 137.076 130.848 136.695 131.002 136.261C131.155 135.838 131.187 135.395 131.099 134.934C131.005 134.478 130.785 134.041 130.437 133.624C130.179 133.314 129.892 133.067 129.575 132.882C129.258 132.707 128.935 132.6 128.605 132.559C128.27 132.524 127.934 132.556 127.597 132.655C127.265 132.76 126.952 132.935 126.659 133.179Z" fill="#181B2E"/>
<path d="M111.307 146.107L111.711 147.071L109.916 147.824C109.557 147.974 109.318 148.182 109.198 148.447C109.075 148.721 109.083 149.024 109.221 149.355C109.346 149.653 109.549 149.862 109.83 149.983C110.111 150.103 110.431 150.089 110.79 149.938L112.595 149.181L113.02 150.196L111.164 150.974C110.718 151.161 110.287 151.234 109.873 151.194C109.461 151.16 109.098 151.025 108.785 150.791C108.468 150.566 108.228 150.257 108.063 149.865C107.891 149.452 107.835 149.054 107.897 148.67C107.952 148.289 108.113 147.943 108.38 147.633C108.648 147.322 109.004 147.073 109.451 146.886L111.307 146.107ZM110.846 142.758L113.822 149.86L112.655 150.349L109.679 143.247L110.846 142.758ZM106.951 144.391L110.728 146.433L109.809 147.284L105.48 145.008L106.951 144.391Z" fill="#181B2E"/>
<path d="M88.1928 149.42L92.2127 152.978L89.1931 157.055L87.5878 157.249L90.9295 152.812L91.0017 153.501L86.5547 149.618L88.1928 149.42ZM92.8121 148.861L93.736 156.506L92.4802 156.658L91.5562 149.013L92.8121 148.861Z" fill="#181B2E"/>
</svg>
